<svg viewBox="0 0 107.61767578125 107.8623046875" version="1.1" xmlns="http://www.w3.org/2000/svg" class=" glyph-box" height="22" width="22"><g transform="matrix(1 0 0 1 -12.451127929687573 89.1611328125)"><path d="M41.4551 18.7012C43.3594 18.7012 44.7754 17.7246 47.0703 15.5762L64.6973-0.537109L97.7051-0.488281C112.256-0.439453 120.068-8.54492 120.068-22.8516L120.068-60.2539C120.068-74.5605 112.256-82.6172 97.7051-82.6172L34.8145-82.6172C20.2637-82.6172 12.4512-74.6094 12.4512-60.2539L12.4512-22.8516C12.4512-8.49609 20.2637-0.537109 34.8145-0.537109L37.1094-0.537109L37.1094 13.6719C37.1094 16.6992 38.6719 18.7012 41.4551 18.7012ZM66.3086-32.5195C63.7695-32.5195 62.3535-33.9355 62.3047-36.5234L61.6699-63.0859C61.6211-65.6738 63.5254-67.5781 66.2598-67.5781C68.9453-67.5781 70.9473-65.625 70.8984-63.0371L70.166-36.5234C70.1172-33.8867 68.7012-32.5195 66.3086-32.5195ZM66.3086-16.1621C63.3789-16.1621 60.8398-18.457 60.8398-21.3867C60.8398-24.2676 63.3301-26.6113 66.3086-26.6113C69.2383-26.6113 71.7285-24.3164 71.7285-21.3867C71.7285-18.4082 69.1895-16.1621 66.3086-16.1621Z"></path></g></svg>
