<svg width="52" height="22" xmlns="http://www.w3.org/2000/svg" class="badge" aria-label="Bèta" role="img"><path fill-rule="evenodd" d="M41 0c6.075 0 11 4.925 11 11s-4.925 11-11 11H11C4.925 22 0 17.075 0 11S4.925 0 11 0h30Zm-2.534 6.9H35.99l-2.903 8.455h2.152l.558-1.918h2.862l.558 1.918h2.153L38.466 6.9Zm-5.246 0h-7.036v1.642h2.495v6.813h2.047V8.542h2.494V6.9Zm-8.305 0h-5.79v8.455h5.79v-1.642h-3.742v-1.859h3.523v-1.511h-3.523v-1.8h3.742V6.9Zm-10.313 0H10.7v8.455h4.016c.61 0 1.137-.1 1.58-.298.444-.199.787-.48 1.03-.844.243-.365.364-.793.364-1.285v-.012c0-.357-.087-.683-.26-.977a2.048 2.048 0 0 0-.706-.714 2.116 2.116 0 0 0-1.008-.304v-.11c.3-.042.568-.149.804-.32.236-.17.423-.383.562-.64.139-.256.208-.535.208-.836v-.011c0-.435-.107-.81-.32-1.125-.215-.314-.521-.556-.92-.725-.4-.17-.883-.254-1.448-.254Zm-1.855 4.728h1.382c.317 0 .585.043.804.128.218.086.384.211.498.377.113.166.17.37.17.611v.012c0 .37-.124.653-.372.85-.248.197-.608.295-1.08.295h-1.402v-2.273Zm24.536-2.92.945 3.251h-2.003l.947-3.251h.11Zm-24.536-.355h1.317c.386 0 .687.09.901.267.215.178.323.424.323.736v.012c0 .313-.116.558-.348.735-.231.177-.56.266-.984.266h-1.209V8.353Z"></path></svg>
