<svg viewBox="0 0 84.666748046875 82.6650390625" version="1.1" xmlns="http://www.w3.org/2000/svg" class=" glyph-box" height="16" width="16"><g transform="matrix(1 0 0 1 -10.401621093750009 76.5625)"><path d="M12.4512-35.2539C12.4512-31.7871 15.332-28.9551 18.75-28.9551L47.4609-28.9551L47.4609-0.244141C47.4609 3.22266 50.293 6.05469 53.7598 6.05469C57.2266 6.05469 60.0586 3.22266 60.0586-0.244141L60.0586-28.9551L88.7695-28.9551C92.2363-28.9551 95.0684-31.7871 95.0684-35.2539C95.0684-38.7207 92.2363-41.5527 88.7695-41.5527L60.0586-41.5527L60.0586-70.2637C60.0586-73.6816 57.2266-76.5625 53.7598-76.5625C50.293-76.5625 47.4609-73.6816 47.4609-70.2637L47.4609-41.5527L18.75-41.5527C15.332-41.5527 12.4512-38.7207 12.4512-35.2539Z"></path></g></svg>
